<?xml version="1.0" encoding="iso-8859-1"?>
<!-- Generator: Adobe Illustrator 19.0.0, SVG Export Plug-In . SVG Version: 6.00 Build 0)  -->
<svg version="1.1" id="Layer_1" xmlns="http://www.w3.org/2000/svg" xmlns:xlink="http://www.w3.org/1999/xlink" x="0px" y="0px"
	 viewBox="0 0 504 504" style="enable-background:new 0 0 504 504;" xml:space="preserve">
<path style="fill:#8A5FC4;" d="M504,391.4c0,24-112.8,44-252,44S0,416.2,0,391.4s112.8-9.6,252-9.6S504,367.4,504,391.4z"/>
<path style="fill:#704D96;" d="M252,381.8c139.2,0,252-14.4,252,9.6s-112.8,44-252,44"/>
<path style="fill:#8A5FC4;" d="M252,354.6c32.8,0,64-0.8,92.8-1.6L270.4,77.8c-14.4-14.4-22.4-14.4-36.8,0L159.2,353
	C188,353.8,219.2,354.6,252,354.6z"/>
<g>
	<path style="fill:#704D96;" d="M252,354.6c32.8,0,64-0.8,92.8-1.6L270.4,77.8"/>
	<path style="fill:#704D96;" d="M50.4,417.8C89.6,426.6,169.6,437,252,437s155.2-8,200.8-18.4L50.4,417.8z"/>
</g>
<polygon style="fill:#FCC03A;" points="252,245.8 262.4,267.4 286.4,270.6 269.6,287.4 273.6,311.4 252,300.2 230.4,311.4 
	234.4,287.4 217.6,270.6 241.6,267.4 "/>
<g>
</g>
<g>
</g>
<g>
</g>
<g>
</g>
<g>
</g>
<g>
</g>
<g>
</g>
<g>
</g>
<g>
</g>
<g>
</g>
<g>
</g>
<g>
</g>
<g>
</g>
<g>
</g>
<g>
</g>
</svg>
